<?xml version="1.0" encoding="UTF-8" standalone="no"?>
<!-- Created with Inkscape (http://www.inkscape.org/) -->

<svg
   xmlns:dc="http://purl.org/dc/elements/1.1/"
   xmlns:cc="http://creativecommons.org/ns#"
   xmlns:rdf="http://www.w3.org/1999/02/22-rdf-syntax-ns#"
   xmlns:svg="http://www.w3.org/2000/svg"
   xmlns="http://www.w3.org/2000/svg"
   xmlns:sodipodi="http://sodipodi.sourceforge.net/DTD/sodipodi-0.dtd"
   xmlns:inkscape="http://www.inkscape.org/namespaces/inkscape"
   width="90"
   height="80"
   id="svg2"
   version="1.1"
   inkscape:version="0.48.4 r9939"
   sodipodi:docname="monster.svg">
  <defs
     id="defs4" />
  <sodipodi:namedview
     id="base"
     pagecolor="#ffffff"
     bordercolor="#666666"
     borderopacity="1.0"
     inkscape:pageopacity="0.0"
     inkscape:pageshadow="2"
     inkscape:zoom="8"
     inkscape:cx="46.50993"
     inkscape:cy="40.413073"
     inkscape:document-units="px"
     inkscape:current-layer="g2998"
     showgrid="false"
     fit-margin-top="0"
     fit-margin-left="0"
     fit-margin-right="0"
     fit-margin-bottom="0"
     inkscape:showpageshadow="false"
     inkscape:window-width="1375"
     inkscape:window-height="876"
     inkscape:window-x="65"
     inkscape:window-y="24"
     inkscape:window-maximized="1" />
  <metadata
     id="metadata7">
    <rdf:RDF>
      <cc:Work
         rdf:about="">
        <dc:format>image/svg+xml</dc:format>
        <dc:type
           rdf:resource="http://purl.org/dc/dcmitype/StillImage" />
        <dc:title></dc:title>
      </cc:Work>
    </rdf:RDF>
  </metadata>
  <g
     inkscape:label="Layer 1"
     inkscape:groupmode="layer"
     id="layer1"
     transform="translate(0,-972.36222)">
    <g
       id="g2998"
       transform="matrix(0.1,0,0,0.1,0,947.126)">
      <path
         style="fill:#ff0000;fill-opacity:1"
         d="M 20 0 L 20 10 L 10 10 L 10 20 L 0 20 L 0 30 L 0 60 L 10 60 L 10 30 L 20 30 L 20 60 L 30 60 L 30 70 L 20 70 L 20 80 L 40 80 L 40 70 L 40 60 L 50 60 L 50 80 L 70 80 L 70 70 L 60 70 L 60 60 L 70 60 L 70 30 L 90 30 L 90 20 L 80 20 L 80 10 L 70 10 L 70 0 L 20 0 z M 30 20 L 40 20 L 40 30 L 30 30 L 30 20 z M 50 20 L 60 20 L 60 30 L 50 30 L 50 20 z "
         transform="matrix(10,0,0,10,0,252.3622)"
         id="rect3074" />
      <rect
         y="452.36221"
         x="800"
         height="400"
         width="100"
         id="rect3082"
         style="fill:#ff0000;fill-opacity:1" />
    </g>
  </g>
</svg>
