<?xml version="1.0" encoding="UTF-8" standalone="no"?>
<!-- Created with Inkscape (http://www.inkscape.org/) -->

<svg
   xmlns:dc="http://purl.org/dc/elements/1.1/"
   xmlns:cc="http://creativecommons.org/ns#"
   xmlns:rdf="http://www.w3.org/1999/02/22-rdf-syntax-ns#"
   xmlns:svg="http://www.w3.org/2000/svg"
   xmlns="http://www.w3.org/2000/svg"
   xmlns:sodipodi="http://sodipodi.sourceforge.net/DTD/sodipodi-0.dtd"
   xmlns:inkscape="http://www.inkscape.org/namespaces/inkscape"
   width="70"
   height="80"
   id="svg2"
   version="1.1"
   inkscape:version="0.48.3.1 r9886"
   sodipodi:docname="New document 1">
  <defs
     id="defs4" />
  <sodipodi:namedview
     id="base"
     pagecolor="#ffffff"
     bordercolor="#666666"
     borderopacity="1.0"
     inkscape:pageopacity="0.0"
     inkscape:pageshadow="2"
     inkscape:zoom="5.7714859"
     inkscape:cx="22.128422"
     inkscape:cy="55.382589"
     inkscape:document-units="px"
     inkscape:current-layer="g2998"
     showgrid="false"
     fit-margin-top="0"
     fit-margin-left="0"
     fit-margin-right="0"
     fit-margin-bottom="0"
     inkscape:showpageshadow="false"
     inkscape:window-width="1375"
     inkscape:window-height="876"
     inkscape:window-x="65"
     inkscape:window-y="24"
     inkscape:window-maximized="1" />
  <metadata
     id="metadata7">
    <rdf:RDF>
      <cc:Work
         rdf:about="">
        <dc:format>image/svg+xml</dc:format>
        <dc:type
           rdf:resource="http://purl.org/dc/dcmitype/StillImage" />
        <dc:title></dc:title>
      </cc:Work>
    </rdf:RDF>
  </metadata>
  <g
     inkscape:label="Layer 1"
     inkscape:groupmode="layer"
     id="layer1"
     transform="translate(0,-972.36222)">
    <g
       id="g2998"
       transform="matrix(0.1,0,0,0.1,0,947.126)">
      <path
         id="rect2985"
         d="m 300,252.36218 0,200 -100,0 0,400 -100,0 0,-200 -100,0 0,200 0,100 0,100.00002 100,0 0,-100.00002 100,0 0,100.00002 300,0 0,-100.00002 100,0 0,100.00002 100,0 0,-400.00002 -100,0 0,200 -100,0 0,-400 -100,0 0,-200 -100,0 z"
         style="fill:#ff623a;fill-opacity:1"
         inkscape:connector-curvature="0" />
      <rect
         y="552.36218"
         x="300"
         height="100"
         width="100"
         id="rect2995"
         style="fill:#ffffff;fill-opacity:1" />
    </g>
  </g>
</svg>
